<?xml version="1.0" standalone="no"?>
<!DOCTYPE svg PUBLIC "-//W3C//DTD SVG 20010904//EN" "http://www.w3.org/TR/2001/REC-SVG-20010904/DTD/svg10.dtd">
<svg version="1.0" xmlns="http://www.w3.org/2000/svg" width="1120.000000pt" height="1120.000000pt" viewBox="0 0 1120.000000 1120.000000" preserveAspectRatio="xMidYMid meet">
<metadata>
Created by potrace 1.11, written by Peter Selinger 2001-2013
</metadata>
<g transform="translate(0.000000,1120.000000) scale(0.100000,-0.100000)"
fill="#000000" stroke="none">
<path d="M6996 10148 c-32 -32 -92 -128 -80 -128 4 0 2 -6 -3 -12 -15 -19 -83
-235 -98 -313 -3 -11 -6 -27 -8 -35 -4 -18 -28 -129 -32 -150 -2 -8 -4 -21 -4
-28 -1 -10 -18 -12 -73 -7 -349 27 -868 36 -1238 21 -271 -11 -383 -19 -688
-51 -53 -5 -58 -3 -66 37 -3 14 -8 26 -43 113 -14 33 -27 69 -30 80 -4 11 -9
22 -12 25 -3 3 -17 25 -30 50 -132 244 -319 360 -373 232 -7 -15 -12 -31 -13
-37 -1 -5 -6 -26 -12 -45 -14 -41 -19 -72 -39 -240 -5 -48 -13 -273 -19 -540
-4 -231 -7 -257 -28 -257 -25 0 -319 -152 -425 -219 -29 -19 -55 -34 -57 -34
-14 0 -327 -220 -338 -237 -4 -7 -12 -13 -17 -13 -7 0 -58 -41 -102 -82 -10
-10 -20 -18 -23 -18 -4 0 -16 -10 -103 -89 -103 -93 -238 -230 -327 -332 -34
-39 -126 -149 -137 -164 -4 -5 -18 -23 -32 -40 -100 -126 -355 -526 -349 -547
2 -4 -1 -8 -5 -8 -4 0 -26 -37 -47 -82 -22 -46 -43 -85 -46 -88 -6 -5 -20 -38
-24 -55 -2 -5 -17 -41 -35 -80 -51 -112 -56 -125 -95 -235 -21 -58 -41 -114
-46 -125 -8 -20 -32 -97 -50 -165 -6 -19 -15 -51 -20 -70 -5 -19 -12 -46 -15
-60 -3 -13 -6 -25 -7 -26 -1 -1 -67 -41 -147 -89 -80 -49 -148 -93 -152 -99
-4 -6 -8 -8 -8 -4 0 4 -37 -18 -82 -48 -46 -29 -89 -54 -95 -54 -7 0 -13 -4
-13 -8 0 -4 -15 -16 -32 -27 -18 -10 -62 -37 -98 -60 -36 -23 -94 -61 -130
-83 -36 -23 -72 -46 -80 -52 -75 -49 -310 -204 -368 -242 -40 -26 -76 -48 -81
-48 -5 0 -11 -3 -13 -8 -4 -10 -306 -212 -317 -212 -5 0 -11 -4 -13 -8 -1 -5
-40 -34 -85 -64 -46 -30 -81 -57 -79 -59 3 -3 36 -2 73 2 70 6 694 2 793 -5
30 -2 96 -7 145 -11 50 -3 113 -8 140 -10 72 -5 175 -15 215 -21 19 -3 47 -6
63 -7 15 -1 27 -5 27 -8 0 -4 10 -7 23 -7 25 0 176 -50 194 -64 12 -9 18 -43
28 -143 2 -27 7 -66 10 -85 11 -80 14 -95 15 -95 1 0 3 -16 5 -35 4 -41 6 -52
35 -190 12 -57 26 -115 31 -128 5 -14 12 -41 15 -60 13 -82 145 -453 215 -607
13 -27 24 -52 24 -55 3 -12 100 -202 136 -265 22 -38 43 -78 46 -88 3 -9 9
-17 13 -17 4 0 12 -12 19 -27 14 -31 172 -267 222 -333 75 -99 154 -196 171
-211 10 -9 18 -19 18 -21 0 -8 65 -76 203 -215 131 -130 131 -130 228 -213 35
-30 75 -65 89 -77 14 -13 28 -23 31 -23 3 0 17 -9 30 -21 13 -11 34 -29 47
-40 12 -10 25 -19 28 -19 7 0 88 -63 92 -72 2 -5 8 -8 14 -8 9 0 96 -56 108
-69 9 -10 64 -42 83 -48 9 -3 17 -9 17 -14 0 -5 6 -9 14 -9 8 0 21 -6 28 -12
21 -20 49 -35 233 -128 185 -93 222 -110 365 -164 52 -20 104 -41 115 -47 11
-5 30 -11 43 -12 12 0 22 -5 22 -10 0 -4 4 -6 8 -3 5 3 20 -1 35 -9 15 -8 27
-12 27 -10 0 2 31 -7 69 -20 39 -13 82 -25 98 -27 15 -1 30 -6 33 -10 3 -4 21
-10 40 -12 19 -3 42 -7 50 -10 8 -3 26 -8 40 -11 14 -2 48 -10 75 -15 46 -10
107 -22 193 -36 38 -6 38 -8 2 116 -11 41 -23 82 -25 90 -2 8 -13 49 -25 90
-11 41 -23 86 -25 98 -3 13 -13 49 -21 80 -8 32 -17 68 -20 82 -3 14 -9 39
-14 55 -5 17 -12 41 -14 55 -3 14 -21 97 -41 185 -19 88 -37 171 -39 185 -2
14 -7 33 -11 42 -10 25 -4 23 64 -22 75 -50 231 -140 242 -140 5 0 9 -5 9 -12
0 -6 3 -9 6 -6 3 4 31 -8 62 -26 65 -37 312 -159 327 -162 6 -1 21 -8 35 -15
23 -13 25 -20 26 -79 0 -36 4 -126 9 -200 4 -74 9 -156 9 -182 1 -27 3 -48 6
-48 3 0 6 -28 7 -63 0 -34 3 -82 6 -107 3 -25 5 -51 6 -59 1 -11 33 -12 189
-6 176 6 277 12 277 15 0 1 18 3 40 5 65 6 127 13 170 21 45 7 39 6 115 22
l55 12 2 73 c1 69 8 135 18 167 2 8 7 33 10 55 4 22 8 47 10 55 3 8 7 33 10
55 4 22 9 49 12 60 3 11 7 29 9 40 2 11 5 30 8 41 2 12 7 38 10 59 4 20 8 40
10 44 2 3 7 26 10 51 3 25 8 56 11 70 3 14 8 37 10 53 5 29 12 72 22 127 3 19
7 46 8 60 1 14 3 25 5 25 1 0 3 16 5 35 2 19 7 64 10 100 4 36 8 74 9 85 2 27
14 45 36 53 21 8 226 250 254 301 5 9 12 18 15 21 4 3 24 32 46 65 22 33 42
62 45 65 9 9 30 44 40 68 10 23 22 31 15 10 -2 -7 -6 -35 -9 -63 -3 -27 -8
-61 -11 -75 -3 -14 -7 -41 -10 -60 -6 -50 -16 -109 -21 -134 -3 -11 -7 -34 -9
-51 -2 -16 -11 -64 -20 -105 -9 -41 -18 -91 -22 -110 -3 -19 -6 -39 -8 -45 -7
-33 -19 -92 -20 -105 -1 -8 -5 -22 -7 -30 -4 -12 -27 -110 -44 -185 -8 -36
-15 -68 -19 -90 -3 -13 -10 -37 -16 -52 -6 -16 -10 -29 -10 -30 1 -2 1 -4 0
-5 0 -2 -3 -14 -5 -28 -3 -14 -19 -70 -36 -125 -17 -55 -31 -104 -33 -110 -1
-5 -5 -19 -9 -30 -61 -163 -82 -206 -147 -302 l-48 -71 107 28 c59 16 126 36
150 44 23 8 42 12 42 9 0 -4 5 -2 12 5 7 7 18 12 26 12 8 0 28 6 45 14 44 20
170 61 180 58 4 -1 7 2 7 7 0 5 13 11 29 14 33 7 70 23 261 115 133 63 261
132 330 177 19 12 71 45 115 73 103 66 112 73 145 99 15 13 31 23 35 23 3 0
13 6 20 13 8 6 20 17 27 22 48 38 228 184 252 205 60 51 304 297 362 364 32
38 66 77 74 86 82 90 243 317 352 495 60 98 234 434 265 510 6 17 18 46 26 65
8 19 14 38 15 43 1 4 9 21 17 37 9 17 12 30 8 30 -5 0 -3 4 2 8 10 7 107 288
110 320 1 10 5 24 8 32 15 39 68 262 73 303 1 9 2 18 4 20 1 1 3 11 4 22 3 17
13 79 21 125 5 29 22 167 30 245 3 28 7 101 10 163 2 62 7 117 10 122 4 6 1
10 -5 10 -6 0 -8 5 -4 11 10 17 11 89 1 89 -4 0 -5 6 0 13 4 6 8 17 9 22 0 6
2 16 2 23 1 7 6 11 11 7 5 -3 12 -1 16 5 5 9 133 84 145 85 3 1 15 6 28 13 12
7 22 10 22 6 0 -3 6 -2 13 4 13 11 187 63 227 67 14 2 39 6 56 9 114 22 332
22 514 0 30 -4 69 -8 85 -10 17 -1 41 -5 55 -8 14 -4 39 -8 55 -11 17 -3 44
-8 60 -11 l30 -6 -20 23 c-11 13 -22 26 -25 29 -3 3 -30 34 -60 69 -126 148
-410 434 -566 570 -73 64 -156 136 -197 173 -23 21 -48 38 -54 38 -7 0 -13 4
-13 9 0 5 -26 28 -57 52 -32 23 -60 45 -63 49 -3 3 -50 39 -105 79 -55 41
-117 87 -137 102 -20 16 -42 29 -47 29 -6 0 -11 4 -11 8 0 4 -22 21 -50 37
-27 16 -50 33 -50 38 0 4 -4 5 -10 2 -5 -3 -10 -3 -10 2 0 7 -115 83 -181 119
-19 11 -56 54 -45 54 6 0 -102 212 -115 225 -5 5 -9 17 -9 26 0 10 -3 19 -8
21 -6 3 -91 138 -101 162 -2 5 -31 50 -65 99 -34 50 -68 100 -76 112 -53 77
-76 108 -107 141 -7 7 -13 17 -13 22 0 6 -3 12 -7 14 -5 2 -28 28 -53 58 -25
30 -49 60 -55 66 -5 6 -42 47 -82 91 -130 145 -284 289 -458 431 -105 85 -285
215 -285 205 0 -3 -8 3 -18 13 -9 10 -29 26 -44 34 -14 8 -65 39 -113 68 -48
28 -91 52 -96 52 -5 0 -9 5 -9 11 0 5 -4 8 -9 5 -5 -4 -11 -2 -13 3 -4 10
-300 158 -383 191 -33 13 -64 26 -70 30 -5 4 -21 10 -35 13 -26 6 -28 15 -34
144 0 18 -3 33 -6 33 -3 0 -6 21 -8 48 -1 26 -5 63 -7 82 -3 19 -8 59 -10 88
-3 29 -7 65 -10 80 -3 15 -7 47 -10 72 -8 58 -13 100 -26 180 -5 36 -12 87
-15 114 -3 27 -9 57 -14 66 -5 10 -7 20 -4 22 4 4 -25 185 -41 258 -2 8 -4 18
-4 22 -2 13 -33 38 -47 38 -8 0 -30 -15 -48 -32z m1694 -2692 c44 -18 100 -65
100 -82 0 -8 4 -14 9 -14 4 0 21 -19 37 -42 16 -24 32 -45 35 -48 17 -14 150
-182 163 -207 8 -15 31 -46 50 -68 34 -38 63 -80 168 -240 97 -148 129 -202
189 -313 31 -55 31 -78 2 -134 -7 -15 -13 -30 -13 -33 1 -6 -41 -83 -80 -148
-25 -42 -93 -87 -133 -87 -71 0 -109 47 -127 160 -7 41 -14 83 -16 93 -2 11
-6 69 -10 130 -7 120 -10 130 -94 267 -142 233 -292 410 -345 410 -38 0 -152
-59 -320 -165 -101 -63 -140 -90 -143 -97 -2 -5 -8 -8 -13 -8 -7 0 -245 -165
-259 -180 -3 -3 -41 -32 -85 -65 -44 -32 -84 -63 -90 -67 -67 -51 -210 -181
-287 -262 -106 -111 -153 -180 -163 -241 -4 -22 -9 -53 -12 -70 -10 -64 1
-1017 12 -1035 3 -5 1 -11 -5 -15 -6 -4 -7 -13 -2 -23 4 -9 8 -287 7 -617 l0
-599 -30 -7 c-16 -4 -57 -15 -90 -24 -33 -10 -64 -18 -70 -20 -35 -8 -76 -19
-112 -31 -24 -7 -57 -16 -74 -19 -18 -3 -40 -10 -50 -16 -11 -5 -19 -7 -19 -4
0 4 -6 3 -12 -1 -7 -5 -19 -9 -28 -10 -8 -1 -42 -10 -75 -19 -33 -9 -82 -23
-110 -30 -27 -7 -65 -18 -82 -23 -18 -6 -33 -8 -33 -5 0 3 -7 0 -15 -7 -8 -7
-15 -10 -15 -6 0 3 -11 1 -25 -4 -14 -5 -36 -12 -48 -14 -12 -3 -62 -17 -112
-31 -49 -14 -99 -27 -110 -29 -11 -3 -20 -5 -20 -6 0 -1 -7 -3 -15 -5 -8 -1
-60 -15 -115 -30 -55 -15 -107 -28 -115 -30 -8 -2 -42 -11 -75 -20 -33 -9 -70
-18 -82 -21 -12 -2 -34 -9 -48 -14 -14 -5 -25 -7 -25 -4 0 2 -8 0 -17 -5 -10
-5 -35 -12 -57 -15 -21 -4 -43 -9 -49 -13 -6 -3 -22 -7 -36 -9 -14 -1 -26 -3
-26 -4 0 -1 -7 -3 -15 -5 -8 -2 -42 -10 -75 -19 -33 -9 -71 -18 -85 -20 -14
-3 -25 -5 -25 -6 0 -1 -8 -3 -19 -5 -10 -2 -39 -9 -65 -15 -25 -6 -56 -12 -69
-15 -13 -2 -31 -6 -40 -9 -9 -3 -33 -8 -52 -11 -19 -3 -64 -13 -100 -21 -36
-8 -81 -16 -100 -19 -63 -7 -94 -16 -102 -28 -4 -7 -8 -7 -9 -2 0 6 -2 18 -4
28 -2 10 -9 51 -15 90 -6 40 -13 81 -15 92 -2 11 -6 31 -9 45 -3 14 -7 39 -10
55 -12 80 -20 130 -30 172 -2 11 -8 43 -12 70 -3 26 -8 57 -10 68 -4 20 -30
168 -38 215 -3 14 -7 39 -9 57 -3 17 -8 37 -12 42 -3 7 3 11 15 11 19 0 21 4
15 28 -8 32 -44 196 -51 232 -2 14 -7 36 -10 50 -12 49 -15 65 -20 90 -3 14
-11 52 -19 85 -20 85 -46 206 -51 235 -3 14 -7 31 -10 39 -2 8 -7 30 -10 50
-3 20 -12 60 -21 89 -8 30 -12 56 -9 59 3 4 2 11 -3 17 -5 6 -11 27 -14 46 -5
31 -14 76 -21 105 -2 6 -6 24 -10 40 -4 17 -11 48 -17 70 -5 22 -11 51 -13 65
-3 14 -5 25 -6 25 -1 0 -3 9 -5 20 -6 43 -16 85 -24 108 -6 14 -8 27 -5 30 2
2 0 15 -5 29 -5 14 -12 38 -15 54 -2 16 -7 40 -10 54 -4 14 -8 34 -11 45 -2
11 -6 31 -10 45 -3 14 -7 34 -10 45 -2 11 -7 31 -10 45 -3 14 -8 39 -11 55 -3
17 -10 50 -15 75 -14 59 -18 79 -24 112 -8 42 -24 78 -34 78 -5 0 -22 5 -38
12 -15 6 -30 12 -33 12 -5 1 -88 31 -120 43 -8 4 -18 7 -22 8 -5 2 -10 4 -13
5 -3 1 -8 3 -12 4 -5 1 -12 4 -18 7 -5 3 -30 12 -55 19 -25 7 -49 17 -55 20
-5 4 -23 11 -40 15 -41 11 -38 10 -150 51 -55 20 -107 37 -115 39 -8 2 -16 4
-17 5 -2 2 -7 4 -13 5 -5 1 -11 3 -12 5 -2 1 -10 3 -18 5 -8 2 -40 11 -70 20
-169 50 -205 57 -290 57 -81 0 -124 -9 -168 -32 -19 -11 -39 -17 -44 -14 -4 3
-8 0 -8 -5 0 -6 -5 -11 -11 -11 -11 0 -116 -69 -157 -104 -82 -68 -152 -171
-191 -276 -54 -147 -71 -311 -39 -385 18 -43 31 -77 32 -85 1 -3 4 -10 8 -16
4 -6 10 -29 14 -52 6 -38 5 -41 -27 -58 -43 -22 -276 -32 -321 -13 -91 37 -95
246 -11 479 13 36 25 70 27 75 1 6 10 27 19 49 9 21 17 42 17 47 0 5 4 9 10 9
5 0 9 3 8 8 -2 10 22 61 45 95 10 15 16 27 13 27 -3 0 17 38 44 84 28 47 50
87 50 91 0 3 5 11 10 18 25 29 60 89 60 102 0 7 4 15 8 17 4 2 24 32 44 68
102 184 275 397 324 400 61 4 221 1 294 -4 47 -3 128 -8 180 -11 52 -2 138 -7
190 -10 52 -3 141 -7 197 -10 96 -4 143 -15 143 -34 0 -7 121 -173 144 -197 6
-6 22 -26 36 -44 65 -85 272 -299 389 -400 35 -30 69 -60 75 -65 6 -6 31 -26
56 -45 25 -19 50 -39 56 -45 6 -5 22 -17 34 -25 12 -8 41 -29 64 -46 115 -85
306 -201 462 -279 43 -22 80 -43 82 -47 2 -4 19 -10 38 -14 19 -3 34 -10 34
-15 0 -5 6 -9 13 -9 7 0 29 -9 50 -20 20 -11 37 -17 37 -14 0 4 6 1 14 -5 8
-7 22 -13 32 -16 11 -2 30 -7 43 -13 l25 -9 -30 -24 c-16 -13 -51 -45 -77 -71
-34 -33 -50 -42 -54 -32 -6 17 -63 53 -91 57 -12 2 -24 6 -27 9 -9 8 -84 -10
-115 -28 -39 -24 -72 -78 -78 -130 -6 -53 29 -140 60 -150 10 -3 18 -10 18
-15 0 -5 7 -9 15 -9 8 0 15 -4 15 -9 0 -5 6 -9 13 -8 6 0 26 -1 43 -1 l31 -2
-4 -77 c-2 -46 3 -111 12 -157 9 -43 13 -82 8 -85 -8 -6 -120 -153 -136 -177
-4 -7 28 3 70 21 43 18 85 35 93 37 8 2 18 8 23 13 4 6 13 2 22 -10 58 -80
117 -139 179 -181 20 -14 34 -30 30 -35 -3 -6 -8 -25 -10 -42 -2 -18 -6 -43
-9 -57 -3 -14 -10 -47 -15 -75 -11 -54 -11 -52 -34 -165 -25 -121 -27 -134
-30 -162 -4 -35 4 -35 26 0 25 41 207 275 221 284 7 4 9 8 5 8 -5 0 1 10 11
23 11 12 37 45 59 73 38 48 42 50 88 51 90 0 191 21 222 46 6 5 12 7 12 3 0
-3 21 7 48 22 47 27 47 27 82 10 48 -25 89 -22 132 7 57 39 73 131 31 177 -14
16 -13 22 11 73 14 31 26 60 26 65 0 6 9 10 20 10 12 0 24 9 29 22 9 25 3 58
-10 58 -4 0 -7 39 -5 87 2 51 -3 115 -12 155 -17 76 -14 86 38 148 17 19 33
40 37 45 5 6 28 37 53 70 25 33 49 63 55 67 25 19 -28 5 -91 -22 -38 -17 -78
-35 -89 -39 -11 -5 -36 -16 -57 -25 -41 -18 -58 -20 -58 -6 0 13 -78 92 -113
115 -29 19 -31 35 -13 117 3 12 8 34 10 48 15 79 18 83 90 135 30 22 92 69
116 88 8 7 31 23 50 37 19 13 37 27 40 30 3 3 28 24 55 45 28 22 52 43 53 48
2 4 8 7 12 7 5 0 22 12 38 28 16 15 72 65 123 112 121 110 434 423 569 569 58
63 114 123 124 134 86 90 204 300 193 341 -2 8 27 23 58 32 6 1 30 10 55 19
25 9 59 21 75 25 17 5 55 16 85 25 55 16 198 53 235 61 11 2 34 7 50 11 17 3
39 8 50 9 59 9 92 14 112 18 12 3 53 8 90 11 37 4 69 8 70 9 1 0 37 2 80 4 53
2 90 -2 113 -12z m-1332 -46 c4 -14 7 -36 5 -50 -4 -31 -10 -114 -12 -157 -1
-24 -11 -42 -43 -70 -239 -218 -591 -577 -767 -782 -82 -96 -114 -131 -211
-232 -53 -55 -98 -99 -102 -99 -5 0 -3 30 2 38 2 1 4 11 5 22 1 11 3 21 4 23
2 1 5 20 7 42 l5 40 -18 -25 c-18 -26 -22 -31 -52 -68 -10 -12 -29 -38 -42
-57 -13 -19 -27 -35 -31 -35 -5 0 -8 -7 -8 -15 0 -8 -5 -15 -10 -15 -6 0 -14
-8 -17 -17 -4 -10 -12 -22 -18 -28 -6 -5 -44 -54 -84 -107 -84 -111 -154 -179
-190 -184 -14 -1 -44 -5 -66 -8 -22 -3 -54 -8 -72 -12 -28 -5 -40 1 -123 70
-51 43 -111 89 -133 103 -23 14 -43 30 -45 34 -2 5 -8 9 -13 9 -10 0 -152 102
-157 113 -2 4 -8 7 -14 7 -8 0 -43 24 -93 63 -5 4 -39 29 -75 55 -36 26 -66
50 -68 54 -2 5 -8 8 -13 8 -10 0 -142 101 -147 112 -2 5 -9 8 -15 8 -7 0 -23
10 -37 23 -14 12 -47 40 -75 62 -114 90 -241 204 -359 321 -170 170 -191 195
-177 204 9 5 15 36 17 94 1 47 5 90 9 95 3 5 1 12 -5 16 -6 4 -7 11 -4 17 4 6
8 40 9 75 2 35 5 66 8 69 2 2 26 7 53 10 89 10 109 13 109 14 0 1 14 4 30 5
42 5 113 13 160 19 75 9 310 36 365 42 150 15 248 24 300 28 25 2 72 7 105 11
59 6 82 8 255 20 47 3 105 7 130 10 25 3 88 7 140 10 52 3 136 8 185 11 112 7
252 13 464 19 90 2 165 6 167 7 1 2 171 3 378 3 l376 1 8 -26z m-1336 -1785
c-6 -33 -20 -41 -39 -22 -14 13 -12 16 13 30 16 8 30 15 30 16 1 1 -1 -10 -4
-24z m-400 -1194 c-5 -3 -14 -15 -20 -26 -9 -16 -11 -17 -12 -3 0 29 11 47 27
41 8 -3 11 -9 5 -12z"/>
<path d="M5826 7283 c-1 -2 -23 -6 -47 -9 -132 -18 -202 -95 -161 -177 18 -39
62 -87 79 -87 7 0 13 -4 13 -10 0 -5 7 -10 15 -10 8 0 15 -4 15 -8 0 -4 15
-12 33 -18 29 -9 38 -6 89 29 72 49 107 89 128 146 20 50 13 94 -17 117 -23
16 -136 37 -147 27z"/>
<path d="M6142 6831 c-28 -49 -111 -135 -150 -155 -17 -9 -46 -18 -63 -20 -36
-3 -99 13 -99 26 0 4 -6 8 -13 8 -6 0 -30 26 -52 59 l-40 58 -18 -30 c-10 -16
-25 -36 -33 -44 -8 -8 -14 -19 -14 -25 0 -6 -3 -9 -6 -5 -4 3 -15 -4 -25 -16
-10 -12 -18 -19 -19 -15 0 4 -9 0 -20 -10 -12 -9 -24 -17 -28 -18 -4 0 -16 -5
-27 -10 -11 -5 -49 -9 -85 -8 -89 1 -162 38 -260 131 -41 40 -81 73 -87 73
-20 0 -15 -39 7 -52 11 -7 20 -16 20 -21 0 -4 -4 -5 -10 -2 -14 9 -12 -22 5
-78 8 -26 14 -51 14 -55 1 -15 55 -178 67 -201 7 -14 11 -28 8 -33 -3 -4 0 -8
5 -8 6 0 11 -6 11 -14 0 -18 71 -154 108 -207 89 -127 206 -196 322 -190 82 3
125 26 169 89 39 56 50 125 36 242 -2 19 -6 58 -9 85 -4 28 -11 61 -16 75 -5
14 -12 34 -14 45 -5 27 -24 76 -46 119 -17 34 -17 35 0 26 10 -6 25 -16 33
-24 22 -22 110 -28 159 -10 56 20 122 75 174 148 24 34 48 66 53 72 10 13 -5
34 -24 34 -6 0 -21 -17 -33 -39z m-967 -111 c3 -6 -1 -7 -9 -4 -18 7 -21 14
-7 14 6 0 13 -4 16 -10z"/>
</g>
</svg>
