<svg xmlns="http://www.w3.org/2000/svg" width="10" height="19" viewBox="0 0 10 19">
	<style type="text/css">
		.st0{fill:#000000;}
	</style>
	<path class="st0" d="M3.11,17.97L5.94,17.97L5.94,9.13L8.86,9.13L8.86,6.82L5.94,6.82L5.93,6.32C5.9,4.92 5.93,3.73 6.67,3.27L6.81,3.18L8.88,3.18L8.88,1.02L6.49,1.02C5.34,1.08 4.48,1.42 3.91,2.05C3.14,2.89 2.87,4.3 3.1,6.25L3.17,6.82L1.11,6.82L1.11,9.13L3.11,9.13ZM7.05,19L2,19L2,10.16L0,10.16L0,5.79L1.94,5.79C1.79,3.82 2.16,2.37 3.06,1.38C3.83,0.54 4.97,0.07 6.46,0L10,0L10,4.21L7.22,4.21C7.09,4.42 7.03,4.95 7.03,5.79L9.97,5.79L9.97,10.16L7.05,10.16Z"/>
</svg>