<svg xmlns="http://www.w3.org/2000/svg" width="16" height="16" viewBox="0 0 16 16">
	<style type="text/css">
		.st0{fill:#231f20;}
	</style>
	<path class="st0" d="M11.82,0L4.17,0C1.87,0 0,1.87 0,4.17L0,11.83C0,14.12 1.87,16 4.17,16L11.82,16C14.12,16 16,14.12 16,11.83L16,4.17C16,1.87 14.12,0 11.82,0M11.82,1.04C13.55,1.04 14.95,2.44 14.95,4.17L14.95,11.83C14.95,13.55 13.55,14.96 11.82,14.96L4.17,14.96C2.44,14.96 1.04,13.55 1.04,11.83L1.04,4.17C1.04,2.44 2.44,1.04 4.17,1.04L11.82,1.04"/>
	<path class="st0" d="M7.99,3.88C5.72,3.88 3.87,5.72 3.87,8C3.87,10.28 5.72,12.13 7.99,12.13C10.27,12.13 12.12,10.28 12.12,8C12.12,5.72 10.27,3.88 7.99,3.88M7.99,4.92C9.69,4.92 11.08,6.3 11.08,8C11.08,9.7 9.69,11.09 7.99,11.09C6.29,11.09 4.91,9.7 4.91,8C4.91,6.3 6.29,4.92 7.99,4.92"/>
	<path class="st0" d="M12.27,2.81C12.78,2.81 13.2,3.22 13.2,3.74C13.2,4.25 12.78,4.67 12.27,4.67C11.75,4.67 11.33,4.25 11.33,3.74C11.33,3.22 11.75,2.81 12.27,2.81"/>
</svg>