<svg xmlns="http://www.w3.org/2000/svg" width="22" height="12" viewBox="0 0 22 12">
	<style type="text/css">
		.st0{fill:#000000;}
	</style>
	<path class="st0" d="M13.66,8.31C14.32,8.31 14.89,8.91 15.5,9.54C15.86,9.92 16.24,10.32 16.59,10.54C17.13,10.87 17.56,10.86 17.62,10.85L17.7,10.84L20.49,10.81C20.61,10.8 20.79,10.75 20.88,10.71C20.87,10.67 20.84,10.63 20.81,10.58C20.48,10.03 19.79,9.31 18.84,8.51C17.97,7.77 17.52,7.39 17.47,6.8C17.42,6.19 17.83,5.7 18.65,4.74C18.85,4.5 19.09,4.22 19.36,3.9C20.5,2.51 20.79,1.89 20.87,1.65C20.74,1.62 20.39,1.63 20.37,1.63L17.17,1.65C17.03,1.65 16.99,1.68 16.99,1.68C16.86,2 16.39,3.06 15.78,4C14.39,6.15 13.74,6.44 13.29,6.44C13.14,6.44 12.99,6.4 12.87,6.33C12.13,5.89 12.16,4.93 12.18,4.23C12.19,4.11 12.19,4 12.19,3.9C12.19,3.41 12.21,2.98 12.23,2.61C12.28,1.33 12.24,1.33 11.95,1.26C11.65,1.2 11.43,1.15 10.59,1.14L10.08,1.14C9.62,1.14 9.09,1.15 8.68,1.21C8.75,1.27 8.81,1.33 8.87,1.4C9.3,1.94 9.31,2.89 9.31,3.07C9.41,4.33 9.36,5.96 8.57,6.36C8.43,6.43 8.28,6.46 8.13,6.46C7.45,6.46 6.77,5.79 5.62,3.97C4.96,2.94 4.47,1.82 4.45,1.78C4.44,1.76 4.41,1.72 4.4,1.7C4.34,1.66 4.23,1.63 4.16,1.62L1.23,1.63C1.21,1.63 1.2,1.64 1.18,1.64C1.61,2.54 3.69,6.66 5.96,8.81C7.97,10.72 10.23,10.81 10.66,10.81L12.02,10.81C12.05,10.8 12.18,10.76 12.22,10.73C12.2,10.75 12.21,10.69 12.21,10.66C12.21,10.46 12.22,8.68 13.37,8.35C13.46,8.32 13.56,8.31 13.66,8.31M17.55,12C17.26,12 16.69,11.93 16.03,11.51C15.56,11.22 15.13,10.78 14.72,10.35C14.4,10.01 13.86,9.45 13.66,9.45C13.46,9.51 13.3,10.15 13.31,10.65C13.31,10.73 13.31,11.24 12.97,11.57C12.65,11.87 12.17,11.94 12.07,11.95L10.66,11.95C9.95,11.95 7.47,11.79 5.21,9.65C2.52,7.1 0.2,2.19 0.1,1.99C-0.03,1.63 -0.07,1.17 0.22,0.86C0.5,0.54 1.01,0.5 1.21,0.49L4.21,0.47L4.29,0.48C4.36,0.49 4.71,0.55 4.99,0.75C5.28,0.93 5.43,1.24 5.45,1.3C5.46,1.32 5.93,2.39 6.53,3.35C7.5,4.86 7.92,5.22 8.08,5.3C8.21,4.98 8.28,4 8.21,3.11C8.21,2.74 8.14,2.27 8.03,2.14C7.95,2.04 7.72,1.94 7.46,1.91L6.93,1.39C6.86,0.89 7.39,0.45 7.77,0.29C8.31,0.05 9.08,0 10.08,0L10.6,0C11.5,0.01 11.79,0.06 12.17,0.14C13.42,0.42 13.38,1.46 13.32,2.67C13.31,3.02 13.29,3.43 13.29,3.9C13.29,4.02 13.29,4.14 13.28,4.27C13.27,4.56 13.26,5.06 13.35,5.26C13.51,5.15 13.97,4.75 14.87,3.37C15.44,2.48 15.9,1.43 15.98,1.23L15.98,1.23C16.12,0.91 16.43,0.52 17.17,0.51L20.3,0.49C20.31,0.49 20.43,0.48 20.58,0.48C21.29,0.48 21.75,0.7 21.92,1.13C22.12,1.63 22.04,2.39 20.19,4.64C19.92,4.97 19.68,5.25 19.47,5.5C19.03,6.01 18.58,6.55 18.57,6.71C18.6,6.84 19.05,7.22 19.48,7.58C20.61,8.53 21.34,9.31 21.71,9.92C22.09,10.5 22.02,10.94 21.9,11.2C21.59,11.86 20.7,11.94 20.52,11.95L17.74,11.99C17.7,11.99 17.64,12 17.55,12"/>
</svg>